<?xml version="1.0" encoding="utf-8"?>
<!-- Generator: Adobe Illustrator 15.0.0, SVG Export Plug-In . SVG Version: 6.00 Build 0)  -->
<!DOCTYPE svg PUBLIC "-//W3C//DTD SVG 1.1//EN" "http://www.w3.org/Graphics/SVG/1.1/DTD/svg11.dtd">
<svg version="1.1" id="Layer_1" xmlns="http://www.w3.org/2000/svg" xmlns:xlink="http://www.w3.org/1999/xlink" x="0px" y="0px"
	 width="595.28px" height="841.89px" viewBox="0 0 595.28 841.89" enable-background="new 0 0 595.28 841.89" xml:space="preserve">
<path fill-rule="evenodd" clip-rule="evenodd" fill="none" d="M636.632,420.848c-0.293,3.157-1.492,5.7-3.597,7.629
	c-8.656,7.835-17.253,11.489-25.792,10.962l-20.177-0.702l-19.3-0.263l-3.86-0.087l-3.685-0.702
	c-3.685-1.344-5.703-3.917-6.053-7.717c-1.637-18.943-1.871-35.926-0.702-50.953l1.229-22.012l1.053-22.188
	c0.292-5.67,0.818-10.756,1.579-15.259c0.702-4.209,3.391-5.992,8.071-5.35l4.211,1.052l3.948,1.579
	c2.338,0.936,6.286,2.076,11.843,3.42l6.141,1.403c2.163,0.526,3.801,0.964,4.913,1.315c15.673,5.204,26.113,11.519,31.319,18.943
	c2.924,4.209,4.941,12.073,6.053,23.59l0.614,8.419l0.438,8.244c0.351,7.133,0.76,12.95,1.228,17.452
	c0.409,3.45,0.672,6.987,0.79,10.611C637.011,414.445,636.924,417.983,636.632,420.848z M608.734,399.449
	c-0.059-2.105-0.118-4.561-0.175-7.367l-0.175-6.402c-0.118-4.677-0.381-8.828-0.79-12.453l-0.263-3.508l-0.351-3.333
	c-0.41-2.456-1.083-4.21-2.018-5.262c-3.919-4.56-10.703-8.945-20.353-13.155c-0.82-0.408-1.754-0.029-2.807,1.14l-1.141,1.579
	l-0.877,1.579c-1.17,2.573-1.785,5.7-1.842,9.384l-0.614,34.553l-0.263,5.701l-0.263,5.788c-0.059,2.865,1.316,4.735,4.123,5.612
	c4.854,1.521,9.591,2.223,14.212,2.105C604.611,415.118,609.143,409.797,608.734,399.449z M508.47,439.396
	c-1.273,0.044-2.654,0.088-4.145,0.132c-4.255,0.043-7.764-0.043-10.527-0.263c-0.658-0.043-1.689-1.25-3.093-3.618
	c-0.526-0.876-1.009-1.797-1.447-2.763c-0.439-0.832-0.724-1.424-0.855-1.776l-3.29-8.748c-0.834-2.061-2.369-3.026-4.606-2.894
	c-2.281,0.088-4.563,0.46-6.843,1.118l-3.027,0.789c-1.228,0.307-2.479,0.57-3.75,0.79c-0.965,0.131-1.513,0.877-1.645,2.236
	l-0.46,5.064l-0.197,2.302l-0.198,2.17c-0.307,2.938-0.855,4.429-1.645,4.473c-8.598,0.395-13.335,0.658-14.212,0.789
	c-2.194,0.263-3.356-0.635-3.487-2.697c-0.087-1.315,0.329-9.405,1.25-24.271l0.526-8.748l0.263-4.209l0.263-3.947
	c0.351-5.831,0.57-9.603,0.658-11.313v-0.723v-0.724c-0.044-2.368,0.022-7.038,0.198-14.01l0.131-7.958
	c0.087-2.806,0.132-5.065,0.132-6.775l0.066-2.631c0.175-2.718,2.5-4.275,6.974-4.67c1.754-0.175,3.355-0.306,4.803-0.395
	l3.421-0.132c2.675-0.087,5.417-0.285,8.225-0.592c0.614-0.087,1.754-0.087,3.421,0h1.842l1.579-0.066
	c2.5-0.219,4.211,1.097,5.132,3.946c1.359,4.209,2.237,7.082,2.632,8.617l2.105,8.156l1.974,8.09
	c1.622,6.622,3.07,11.993,4.342,16.114c0.395,1.228,0.964,3.114,1.711,5.657l0.987,3.486l1.053,3.552
	c1.667,5.876,2.632,9.187,2.895,9.932c0.438,1.184,0.898,2.368,1.382,3.552l1.184,2.894c1.009,2.457,1.82,4.539,2.435,6.249
	l0.131,0.395l0.198,0.592l0.658,1.71c0.57,1.71,1.074,3.223,1.514,4.539c1.271,4.078,1.622,6.227,1.053,6.446
	C510.136,439.308,509.565,439.353,508.47,439.396z M478.861,396.84l-0.263-0.987l-0.198-0.855c-0.395-2.192-0.79-4.56-1.184-7.104
	l-0.921-6.249c-0.747-4.691-1.536-8.66-2.369-11.905l-0.197-0.855l-0.395-0.921c-0.395-0.658-0.921-0.986-1.579-0.986l-0.855-0.066
	l-1.053-0.197l-2.171-0.197c-1.448-0.043-2.281,0.526-2.5,1.71c-0.395,1.799-0.57,4.517-0.526,8.156v4.012v2.763
	c-0.131,3.64-0.197,7.126-0.197,10.458v3.025c0.043,1.491,0.197,2.785,0.46,3.881c0.701,3.157,2.214,4.517,4.54,4.078
	c5-1.008,7.61-1.579,7.83-1.71c1.448-0.658,2.105-1.929,1.974-3.815L478.861,396.84z M421.904,387.457
	c2.193,5.262,4.129,10.452,5.812,15.566c4.532,13.813,6.47,25.177,5.812,34.093c-0.147,1.827-2.779,2.557-7.896,2.192
	c-2.486-0.219-5.959-0.255-10.418-0.11l-5.264,0.11h-4.496c-1.609,0-2.925-1.571-3.948-4.714l-1.206-4.056l-0.877-3.289
	l-1.535-4.714l-1.755-5.042c-1.316-3.873-2.412-6.649-3.29-8.332c-2.193-4.457-5.301-8.732-9.321-12.826
	c-5.044-5.188-9.797-8.039-14.256-8.551c-0.658,1.682-0.586,6.468,0.22,14.361c0.291,2.631,0.62,5.519,0.987,8.66l0.548,3.398
	l0.329,2.193l0.658,6.796l0.438,6.797c0.584,5.335-0.219,8.44-2.413,9.318c-1.463,0.291-5.154,0.255-11.076-0.11l-6.799-0.219
	c-2.486-0.072-4.424-0.036-5.812,0.11c-5.557,0.658-8.627-2.374-9.212-9.099l-0.877-7.893l-1.316-8.002
	c-0.951-6.578-1.39-11.911-1.316-16.005c-0.074-19.732-1.244-46.552-3.509-80.463c-0.219-3.069-0.182-7.674,0.11-13.813
	c0.291-6.211,0.658-9.976,1.096-11.291c1.462-4.604,5.555-7.162,12.282-7.674c1.388-0.146,5.373-0.255,11.953-0.329h7.567
	c2.704-0.072,4.751-0.146,6.141-0.219c5.703-0.438,12.647-0.768,20.835-0.987l10.199-0.219l10.747-0.329
	c6.871-0.365,11.44,2.193,13.708,7.674c0.658,1.682,1.388,3.946,2.193,6.796l0.987,3.618l0.877,3.289
	c0.804,3.07,1.864,8.734,3.18,16.992c1.168,7.016,1.316,14.069,0.439,21.157c-1.17,9.646-3.657,15.421-7.457,17.32
	c-2.486,1.17-7.714,2.998-15.682,5.481c2.852,3.289,5.336,7.09,7.457,11.401C418.431,379.637,420.149,383.291,421.904,387.457z
	 M395.476,317.079c-0.512-2.192-3.509-3.215-8.992-3.069c-2.047,0-4.205,0.183-6.47,0.548c-2.048,0.292-3.657,0.622-4.825,0.986
	c-4.68,1.463-7.385,6.797-8.115,16.005l0.109,1.864l0.22,2.521l0.438,6.249c0.219,1.973,1.316,2.924,3.29,2.851l17.875-1.316
	c2.632-0.291,4.277-1.826,4.935-4.604l1.097-5.042l0.987-5.481C396.535,324.204,396.354,320.367,395.476,317.079z M323.035,430.056
	c-0.352,1.93-0.747,3.312-1.185,4.144c-1.404,2.543-3.421,3.99-6.053,4.341c-2.852,0.439-6.382,0.592-10.593,0.46l-5.593-0.131
	l-5.922-0.198c-0.965-0.043-2.96,0.044-5.987,0.263l-4.014,0.263l-4.276,0.197c-7.37,0.351-12.02-0.021-13.949-1.118
	c-2.808-1.579-4.54-4.297-5.198-8.156c-0.307-1.929-0.439-4.647-0.395-8.156v-4.012l-0.263-4.078
	c-0.351-3.113-0.219-11.247,0.395-24.402l0.395-7.696l0.329-7.432c0.219-5.394,0.285-9.427,0.198-12.103
	c-0.176-0.745-0.132-1.995,0.131-3.749l0.395-2.104l0.329-1.776c0.438-2.674,1.732-4.604,3.882-5.788l3.026-1.118l2.961-0.658
	c1.185-0.263,2.369-0.438,3.553-0.526l1.382-0.132l1.316-0.131c4.167-0.569,12.304-0.855,24.411-0.855l2.697-0.066l2.764,0.197
	c1.316,0.176,2.609,0.57,3.882,1.184c0.964,0.483,1.754,1.031,2.369,1.645c0.921,0.877,1.82,2.039,2.698,3.486l0.855,1.71
	l0.592,1.25c1.359,3.157,2.215,8.178,2.566,15.062l0.065,1.184l0.132,1.644l0.197,3.815c0.175,3.42,0.285,5.919,0.329,7.498
	c0.438,4.035,0.658,6.775,0.658,8.222c0,2.894,0.087,5.854,0.263,8.879l0.592,7.827c0.57,6.534,0.79,12.125,0.658,16.772
	C323.583,426.898,323.385,428.346,323.035,430.056z M304.809,396.708c-1.447-9.383-2.413-17.298-2.895-23.744
	c-0.395-4.911-3.115-7.278-8.159-7.104c-0.833,0.044-1.865,0.131-3.092,0.263l-4.014,0.46c-3.29,0.483-5.11,1.031-5.461,1.644
	l-0.987,2.17l-0.658,2.302c-0.263,1.052-0.352,2.193-0.263,3.42c0.263,3.114,0.329,6.884,0.197,11.313l-0.46,11.313
	c-0.176,5.394,0.438,10.129,1.842,14.207c0.921,2.807,2.829,4.561,5.724,5.262c3.29,0.746,7.172,0.79,11.646,0.132
	c3.07-0.438,4.935-2.192,5.593-5.262l0.526-3.42l0.526-3.618l0.131-4.604C305.05,399.56,304.984,397.981,304.809,396.708z
	 M146.877,437.883c-0.526,1.009-1.273,1.513-2.237,1.513h-7.83h-3.619c-6.185,0-10.001,0.044-11.449,0.132
	c-1.053,0.043-5.769-0.087-14.146-0.395l-4.606-0.197l-4.079-0.131c-2.632-0.087-4.102-0.132-4.409-0.132h-1.71l-1.974-0.395
	c-1.492-0.526-2.434-1.579-2.829-3.157c-0.176-0.701-0.658-13.176-1.447-37.425c-0.747-23.897-1.119-37.031-1.119-39.398
	c0.043-4.341,2.214-8.09,6.514-11.248c2.28-1.666,10.044-2.302,23.292-1.907l7.698,0.329l3.619,0.131l3.421,0.131
	c5.043,0.22,8.29,0.242,9.738,0.066c2.148-0.263,3.333,0.373,3.553,1.908l0.855,4.999l0.855,5.064
	c0.614,3.815,0.898,5.942,0.855,6.38c0,1.096-0.461,1.71-1.382,1.841c-0.263,0.044-2.171-0.175-5.725-0.658l-2.566-0.329
	l-2.829-0.395l-6.185-0.79c-11.361-1.271-18.335-1.293-20.923-0.066c-0.878,0.439-1.382,1.315-1.513,2.631l-0.066,1.775l0.263,1.842
	c0.263,1.799,0.329,4.583,0.197,8.354l-0.263,5.393l-0.329,5.657c-0.615,10.217-0.724,16.685-0.329,19.403
	c0.219,1.535,0.942,3.42,2.171,5.656c1.448,2.588,2.764,3.881,3.948,3.881l9.936-0.395c2.28-0.175,6.754-0.132,13.422,0.131
	c6.272,0.22,10.746,0.483,13.422,0.79c1.403,0.175,2.04,0.943,1.908,2.302l-1.316,13.615
	C147.535,436.107,147.271,437.138,146.877,437.883z M72.637,422.163c-0.645,3.538-1.368,6.07-2.171,7.597
	c-2.575,4.663-6.273,7.316-11.098,7.958c-5.228,0.805-11.701,1.085-19.421,0.844l-10.253-0.241l-10.856-0.362
	c-1.77-0.079-5.428,0.081-10.977,0.482l-7.358,0.482l-7.841,0.362c-13.51,0.643-22.035-0.04-25.573-2.05
	c-5.147-2.894-8.323-7.877-9.529-14.952c-0.564-3.537-0.805-8.521-0.724-14.953v-7.356l-0.482-7.476
	c-0.643-5.707-0.402-20.62,0.724-44.737l0.724-14.108l0.603-13.626c0.401-9.888,0.522-17.283,0.362-22.188
	c-0.322-1.366-0.241-3.657,0.241-6.873l0.724-3.859l0.603-3.256c0.803-4.902,3.176-8.441,7.117-10.611l5.549-2.05l5.428-1.206
	c2.171-0.482,4.343-0.803,6.514-0.965l2.533-0.241l2.413-0.241c7.639-1.043,22.557-1.567,44.752-1.567l4.946-0.121l5.066,0.362
	c2.413,0.322,4.784,1.046,7.117,2.17c1.768,0.886,3.215,1.89,4.343,3.015c1.689,1.609,3.336,3.738,4.946,6.391l1.568,3.135
	l1.086,2.291c2.492,5.788,4.06,14.994,4.704,27.614l0.121,2.171l0.241,3.014l0.362,6.994c0.321,6.271,0.522,10.853,0.603,13.747
	c0.803,7.397,1.206,12.42,1.206,15.073c0,5.306,0.16,10.732,0.483,16.279l1.086,14.35c1.044,11.979,1.448,22.229,1.206,30.749
	C73.642,416.375,73.28,419.028,72.637,422.163z M39.223,361.026c-2.654-17.202-4.424-31.714-5.307-43.531
	c-0.724-9.002-5.711-13.343-14.958-13.023c-1.529,0.081-3.419,0.241-5.669,0.482l-7.358,0.844c-6.031,0.886-9.369,1.89-10.012,3.015
	l-1.809,3.979l-1.206,4.22c-0.482,1.93-0.645,4.021-0.482,6.271c0.482,5.709,0.603,12.622,0.362,20.741l-0.844,20.741
	c-0.322,9.888,0.803,18.57,3.378,26.046c1.689,5.146,5.187,8.362,10.494,9.646c6.031,1.368,13.148,1.447,21.351,0.241
	c5.628-0.803,9.047-4.019,10.253-9.647l0.965-6.27l0.965-6.632l0.241-8.441C39.665,366.253,39.544,363.359,39.223,361.026z"/>
<path fill-rule="evenodd" clip-rule="evenodd" fill="none" d="M544.5,472.5c1.298-7.948-0.849-32.674-5-37
	c-4.151-4.326-12.146-19.275-6.57-29.062c6.611-11.604,7.737-11.156,8.717-19.558c0.634-5.44-1.274-11.783-9.255-13.818
	c-11.679-2.978-12.104-9.144-11.451-13.568c0.949-6.435,3.882-11.46,7.768-9.235c3.263,1.868,0.555,6.681-1.673,4.312
	c0,0-0.103,1.005,0.119,1.675c0.508,1.535,1.836,3.453,3.76,0.771c3.195-4.454,0.32-9.498-1.647-10.549
	c-2.644-1.413-10.625-3.448-14.287,12.073c-3.662,15.521,4.99,20.481,8.632,21.72c4.117,1.401,6.354,4.43,4.158,10.9
	c-4.463,13.15-13.761,28.449-13.271,38.34c0.301,6.077,4.884,26.353,8,34C525.834,471.683,540.588,478.524,544.5,472.5z"/>
<path fill-rule="evenodd" clip-rule="evenodd" fill="none" d="M533.255,329.773c-0.11,0.647-0.233,1.111-0.371,1.39
	c-0.439,0.854-1.07,1.339-1.894,1.457c-0.892,0.147-1.997,0.198-3.314,0.154l-1.75-0.044l-1.853-0.066
	c-0.302-0.015-0.926,0.015-1.873,0.088l-1.255,0.088l-1.338,0.066c-2.305,0.118-3.76-0.007-4.364-0.375
	c-0.878-0.53-1.42-1.442-1.626-2.737c-0.096-0.647-0.137-1.56-0.124-2.737v-1.346l-0.083-1.369
	c-0.109-1.044-0.068-3.774,0.124-8.188l0.124-2.583l0.103-2.494c0.068-1.81,0.089-3.163,0.062-4.061
	c-0.055-0.25-0.042-0.669,0.041-1.258l0.124-0.707l0.103-0.596c0.137-0.897,0.542-1.545,1.214-1.942l0.947-0.375l0.926-0.221
	c0.371-0.088,0.741-0.147,1.111-0.177l0.433-0.044l0.412-0.044c1.303-0.191,3.849-0.287,7.637-0.287l0.844-0.022l0.865,0.066
	c0.412,0.059,0.816,0.191,1.214,0.397c0.302,0.162,0.549,0.346,0.741,0.552c0.288,0.294,0.569,0.684,0.844,1.17l0.268,0.574
	l0.186,0.419c0.425,1.059,0.692,2.744,0.803,5.054l0.021,0.397l0.041,0.552l0.062,1.28c0.055,1.147,0.089,1.986,0.103,2.516
	c0.137,1.354,0.206,2.273,0.206,2.759c0,0.971,0.027,1.964,0.083,2.979l0.185,2.626c0.178,2.193,0.247,4.069,0.206,5.628
	C533.427,328.713,533.365,329.199,533.255,329.773z"/>
<path fill-rule="evenodd" clip-rule="evenodd" fill="none" d="M248.437,341.648c0,3.566-1.938,5.408-5.814,5.524
	c-3.995,0.059-9.104,0.351-15.329,0.876c-5.052,0.41-7.635,4.356-7.752,11.838c0,4.853-0.088,12.188-0.264,22.01l-0.176,11.224
	l-0.088,18.415l0.088,7.278c0.117,5.847,0.088,10.786-0.088,14.819c-0.119,3.566-1.821,5.467-5.11,5.7l-9.514,0.176l-9.514-0.088
	c-3.231,0.175-5.11,0.03-5.638-0.438c-0.764-0.643-1.146-2.688-1.146-6.138l0.705-63.75v-3.946c0-2.28-0.03-3.595-0.088-3.946
	l-0.088-3.508l-0.176-3.771c-0.412-2.747-1.498-4.122-3.26-4.122c-0.999,0-2.79-0.058-5.374-0.175l-6.695-0.263
	c-5.757-0.116-10.102,0.176-13.039,0.877c-2.35,0.585-3.554-0.555-3.612-3.42c0.47-4.034,0.793-7.862,0.969-11.487
	c0.117-2.806,0.146-5.553,0.088-8.243c-0.118-5.086-0.176-7.658-0.176-7.716c0.705-2.162,2.114-3.361,4.229-3.596
	c4.229-0.351,7.986-0.555,11.276-0.614c4.405-0.057,10.629,0.088,18.676,0.438l8.986,0.351l8.458,0.175
	c4.639,0,9.69-0.175,15.152-0.526c4.11-0.233,8.633-0.555,13.567-0.964c0.762-0.058,2.466-0.175,5.109-0.351
	c2.583-0.175,4.317-0.292,5.198-0.351c1.057-0.058,1.938,0.556,2.643,1.841c0.705,1.228,0.91,2.456,0.617,3.683
	C249.435,327.53,248.494,334.926,248.437,341.648z"/>
</svg>
